<?xml version="1.0" standalone="no"?>
<!DOCTYPE svg PUBLIC "-//W3C//DTD SVG 20010904//EN"
 "http://www.w3.org/TR/2001/REC-SVG-20010904/DTD/svg10.dtd">
<svg version="1.0" xmlns="http://www.w3.org/2000/svg"
 width="1000.000000pt" height="1000.000000pt" viewBox="0 0 1000.000000 1000.000000"
 preserveAspectRatio="xMidYMid meet">
<metadata>
Created by potrace 1.11, written by Peter Selinger 2001-2013
</metadata>
<g transform="translate(0.000000,1000.000000) scale(0.100000,-0.100000)"
fill="#000000" stroke="none">
<path d="M4706 9939 c-1090 -62 -2120 -484 -2962 -1214 -144 -125 -406 -390
-523 -530 -563 -674 -931 -1449 -1086 -2289 -212 -1152 -10 -2351 566 -3357
322 -562 757 -1061 1274 -1464 140 -110 414 -292 574 -384 1168 -667 2560
-827 3861 -445 668 197 1298 544 1846 1019 144 125 406 390 523 530 447 536
777 1145 965 1785 412 1403 193 2899 -601 4115 -297 454 -681 870 -1118 1210
-140 110 -414 292 -574 384 -831 474 -1779 695 -2745 640z m-1666 -2844 c355
-51 686 -185 952 -386 93 -70 281 -250 336 -323 l22 -28 102 26 c393 98 749
98 1146 0 l144 -35 36 43 c325 386 763 625 1292 705 160 24 501 24 660 0 705
-109 1243 -492 1530 -1090 51 -106 130 -312 130 -338 0 -5 -165 -8 -406 -7
l-406 3 -48 107 c-174 392 -493 644 -899 712 -110 19 -338 21 -444 5 -258 -39
-470 -138 -644 -302 -241 -228 -377 -533 -424 -957 -17 -149 -6 -453 20 -604
51 -288 181 -558 360 -748 182 -194 418 -318 690 -363 149 -25 397 -17 536 19
378 95 648 337 814 729 l20 47 406 0 407 0 -7 -32 c-11 -48 -88 -244 -125
-318 -295 -585 -819 -951 -1510 -1057 -160 -24 -490 -24 -655 1 -154 22 -394
84 -515 131 -624 245 -1068 785 -1204 1466 -35 176 -46 292 -46 499 0 268 24
447 91 679 17 57 29 104 27 106 -8 9 -133 35 -213 46 -152 20 -451 1 -551 -35
-8 -3 0 -41 22 -116 117 -384 122 -891 14 -1298 -131 -491 -405 -884 -800
-1151 -421 -283 -1000 -406 -1545 -326 -972 142 -1636 846 -1736 1839 -16 165
-6 516 20 661 77 444 255 804 540 1098 339 350 771 552 1296 606 125 13 427 6
565 -14z"/>
<path d="M2485 6489 c-533 -78 -907 -456 -1024 -1036 -49 -242 -54 -604 -11
-833 111 -596 508 -1018 1040 -1105 121 -19 332 -19 443 0 105 18 272 72 358
115 205 104 390 290 501 506 133 257 187 502 188 844 0 526 -121 885 -393
1167 -177 183 -390 294 -646 337 -103 17 -352 20 -456 5z"/>
</g>
</svg>
