<?xml version="1.0" standalone="no"?>
<!DOCTYPE svg PUBLIC "-//W3C//DTD SVG 20010904//EN"
 "http://www.w3.org/TR/2001/REC-SVG-20010904/DTD/svg10.dtd">
<svg version="1.0" xmlns="http://www.w3.org/2000/svg"
 width="800.000000pt" height="800.000000pt" viewBox="0 0 800.000000 800.000000"
 preserveAspectRatio="xMidYMid meet">
<metadata>
Created by potrace 1.11, written by Peter Selinger 2001-2013
</metadata>
<g transform="translate(0.000000,800.000000) scale(0.100000,-0.100000)"
fill="#000000" stroke="none">
<path d="M1847 5884 c-1 -1 -38 -5 -82 -9 -107 -9 -114 -10 -235 -35 -630
-130 -1121 -562 -1324 -1164 -36 -106 -70 -242 -82 -331 -3 -27 -8 -59 -11
-70 -12 -50 -14 -408 -4 -505 18 -163 38 -275 60 -333 6 -15 9 -27 6 -27 -11
0 71 -215 120 -315 200 -408 542 -713 969 -864 78 -28 179 -57 231 -67 41 -8
71 -14 95 -19 73 -15 249 -28 365 -28 656 0 1207 276 1538 770 76 114 142 240
191 370 38 100 92 307 101 392 4 30 9 63 12 75 3 12 7 118 8 236 6 389 -44
626 -196 936 -278 567 -813 922 -1478 980 -58 5 -280 11 -284 8z m293 -558
c14 -3 41 -9 60 -12 61 -10 192 -56 265 -92 334 -166 562 -530 612 -978 18
-157 8 -474 -18 -607 -6 -29 -13 -63 -15 -77 -10 -49 -65 -203 -99 -276 -32
-71 -112 -200 -145 -235 -8 -9 -33 -36 -55 -60 -104 -113 -235 -199 -385 -253
-90 -33 -143 -45 -260 -61 -45 -6 -247 -7 -280 -1 -14 3 -38 7 -55 10 -234 41
-416 135 -581 300 -121 121 -196 235 -259 391 -29 74 -69 206 -79 265 -3 19
-8 44 -10 55 -29 153 -27 475 4 645 5 30 12 71 15 90 8 47 68 224 96 286 132
284 368 493 643 571 99 28 122 33 186 39 36 4 67 8 68 9 6 5 265 -4 292 -9z"/>
<path d="M6047 5884 c-1 -1 -47 -5 -102 -8 -228 -15 -475 -84 -700 -196 -279
-139 -495 -331 -675 -600 -91 -135 -200 -387 -240 -555 -47 -197 -55 -276 -55
-530 0 -230 6 -304 36 -440 11 -49 23 -103 26 -119 10 -58 76 -234 129 -341
199 -408 542 -714 970 -865 102 -36 256 -75 334 -85 30 -4 58 -9 61 -10 10 -7
221 -18 314 -18 118 1 262 13 345 29 14 2 39 7 55 10 17 2 72 16 123 30 559
150 974 523 1183 1064 16 41 31 88 35 105 l5 30 -366 0 c-384 0 -384 0 -385
-43 0 -21 -59 -132 -115 -217 -48 -72 -141 -174 -219 -239 -107 -90 -324 -182
-476 -202 -25 -3 -48 -8 -52 -10 -10 -7 -258 -5 -298 2 -92 15 -172 35 -240
60 -422 152 -700 553 -749 1079 -8 87 -6 359 3 420 2 17 7 53 11 80 11 77 34
174 58 245 11 36 22 67 22 70 11 41 71 159 124 240 159 244 414 406 716 455
80 13 310 12 390 -1 395 -67 686 -307 838 -691 l17 -43 365 0 c201 0 365 2
365 4 0 2 -9 30 -19 62 -126 394 -401 745 -744 954 -185 112 -424 205 -607
235 -35 6 -91 15 -122 21 -60 10 -353 25 -361 18z"/>
</g>
</svg>
