<svg xmlns="http://www.w3.org/2000/svg" viewBox="0 0 294.7 50"><path d="M25.6 23.9c5.5-1.7 7.7-5.5 7.7-10.3v-.3C33.3 4.5 27.4.7 17.4.7H0v48.6h18.7c10.7 0 16.7-4.6 16.7-13.6v-.3c-.1-6.4-3.2-10-9.8-11.5M8.8 7.2h7.3c5.8 0 8.4 2 8.4 6.6v.2c0 5-2.3 7.1-8.3 7.1H8.8V7.2zm17.6 27.9c0 5-2.8 7.7-8.8 7.7H8.8V27.3H17c6.7 0 9.4 2.5 9.4 7.5v.3zM44.1.7h9.1v48.6h-9.1zM96 35.8L75.5.7H64.7v48.6h8.2V12.1l21.9 37.2h9.4V.7H96M234.7.7h-9v48.6h29.7v-7.2h-20.7M272.2 42.2V28h17.1v-6.8h-17.1V7.8h21.3V.7h-30.4v48.6h31.6v-7.1M193 42.7c-1.8 0-3.4-.3-5-.8-3.4-1.2-6.2-3.5-8-6.9-1.5-2.7-2.3-6-2.3-9.8v-.5c0-.8 0-1.5.1-2.2.3-3.7 1.4-6.9 3.1-9.4 2.6-3.7 6.7-5.9 12-5.9 6.9 0 11.8 3.9 13.9 9.9h9.6C213.5 6.9 204.7 0 192.9 0c-8.3 0-15.1 3.5-19.5 9.1-2.6-.8-5.4-1.3-8.4-1.3-2.8 0-5.5.4-8 1.2-4.3-5.6-11.1-9-19.5-9-14.4 0-24.6 10.5-24.6 24.7v.5c0 14 9.7 24.7 24.6 24.7 2.9 0 5.5-.4 8-1.2 3-.9 5.6-2.3 7.8-4.1 5.5-4.5 8.7-11.4 8.7-19.6v-.5c0-3.2-.5-6.2-1.5-8.9 1.4-.4 2.9-.6 4.5-.6 1.7 0 3.3.2 4.8.7-1 2.8-1.5 5.8-1.5 9v.5c0 8 3.2 14.9 8.6 19.3 2.2 1.8 4.7 3.2 7.6 4.1 2.6.8 5.4 1.3 8.4 1.3 11.8 0 20.4-6.8 23.3-16.8h-9.6c-2.2 6-7 9.6-13.6 9.6m-51.1-.6c-1.3.4-2.7.6-4.2.6-8.8 0-15.3-6.9-15.3-17.5v-.5c0-10.5 5.6-17.5 15.2-17.5 5.2 0 9.2 2.2 11.8 5.8 1.7 2.4 2.8 5.4 3.1 8.8.1.9.2 1.8.2 2.8v.5c0 4.2-.9 7.8-2.6 10.7-1.9 3.2-4.7 5.4-8.2 6.3"/></svg>
