<svg xmlns="http://www.w3.org/2000/svg" viewBox="0 0 885 150">

	<path class="st0" d="M77.11 71.845c16.508-5.108 23.11-16.526 23.11-30.95v-.9c0-26.44-17.707-37.858-47.72-37.858H.284v146.027h56.12c32.113 0 50.12-13.82 50.12-40.862v-.903c-.3-19.23-9.604-30.048-29.412-34.555m-50.42-50.18H48.6c17.407 0 25.21 6.01 25.21 19.832v.6c0 15.024-6.903 21.334-24.91 21.334H26.69V21.667zm52.822 83.832c0 15.023-8.402 23.136-26.41 23.136h-26.41V82.06H51.3c20.107 0 28.21 7.513 28.21 22.535v.902zm53.12-103.36h27.31v146.026h-27.31V2.136zM288.392 107.6L226.866 2.136h-32.412v146.027h24.61V36.39l65.724 111.773H313V2.136h-24.61m416.257 0h-27.01v146.027h89.135V126.53h-62.125m112.543.3V84.162h51.318v-20.43H817.19V23.47h63.925V2.136H789.88v146.027h94.838V126.83M579.5 128.334c-5.402 0-10.203-.903-15.008-2.406-10.203-3.605-18.604-10.516-24.006-20.732-4.5-8.112-6.903-18.026-6.903-29.444V74.25c0-2.404 0-4.507.3-6.61.9-11.118 4.203-20.733 9.303-28.244 7.803-11.12 20.11-17.73 36.016-17.73 20.707 0 35.41 11.72 41.715 29.748h28.81C641.025 20.766 614.614.034 579.2.034c-24.91 0-45.315 10.517-58.52 27.342-7.802-2.404-16.207-3.905-25.21-3.905-8.402 0-16.507 1.202-24.01 3.605C458.558 10.25 438.15.035 412.94.035c-43.218 0-73.828 31.548-73.828 74.214v1.502c0 42.064 29.11 74.216 73.828 74.216 8.702 0 16.505-1.202 24.01-3.605 9.003-2.705 16.806-6.912 23.407-12.32 16.506-13.52 26.108-34.254 26.108-58.892v-1.5c0-9.615-1.5-18.63-4.5-26.742 4.2-1.202 8.702-1.803 13.505-1.803 5.102 0 9.902.6 14.403 2.103-3 8.413-4.5 17.427-4.5 27.042v1.503c0 24.036 9.604 44.77 25.81 57.99 6.604 5.408 14.105 9.614 22.81 12.318 7.802 2.404 16.205 3.906 25.21 3.906 35.41 0 61.223-20.432 69.924-50.478h-28.81c-6.603 18.028-21.008 28.846-40.817 28.846m-153.358-1.805c-3.9 1.2-8.103 1.804-12.604 1.804-26.41 0-45.917-20.734-45.917-52.583V74.25c0-31.55 16.807-52.582 45.617-52.582 15.607 0 27.61 6.61 35.414 17.427 5.105 7.21 8.403 16.225 9.304 26.442.3 2.703.602 5.408.602 8.413v1.5c0 12.62-2.703 23.438-7.805 32.15-5.702 9.617-14.104 16.226-24.608 18.93"/>

</svg>
