<?xml version="1.0" encoding="utf-8"?>
<!-- Generator: Adobe Illustrator 15.0.0, SVG Export Plug-In . SVG Version: 6.00 Build 0)  -->
<!DOCTYPE svg PUBLIC "-//W3C//DTD SVG 1.1//EN" "http://www.w3.org/Graphics/SVG/1.1/DTD/svg11.dtd">
<svg version="1.1" id="vector--binocle" shape-rendering="geometricPrecision"
	 xmlns="http://www.w3.org/2000/svg" xmlns:xlink="http://www.w3.org/1999/xlink" x="0px" y="0px" width="1000px" height="1000px"
	 viewBox="0 0 1000 1000" enable-background="new 0 0 1000 1000" xml:space="preserve">
<title>instagram</title>
<path d="M674.4,170.9H325.8c-85.4,0-154.8,69.5-154.8,154.8v348.5C171,759.6,240.5,829,325.8,829h348.5
	c85.4,0,154.8-69.5,154.8-154.8V486.7h0.101V325.8C829.2,240.4,759.7,170.9,674.4,170.9z"/>
<path fill="#FFFFFF" d="M674.4,215.9c60.5,0,109.8,49.2,109.8,109.8V441.6H784.1V674.2c0,60.5-49.199,109.8-109.8,109.8H325.8
	C265.3,784,216,734.8,216,674.2V325.8c0-60.5,49.2-109.8,109.8-109.8H674.4"/>
<path d="M500,600.1c55.1,0,100.1-44.8,100.1-100.1c0-21.8-7.1-41.9-18.899-58.3C563,416.5,533.4,400,500.1,400
	c-33.399,0-62.8,16.5-81.1,41.7c-11.8,16.5-18.9,36.6-18.9,58.3C399.9,555.1,444.9,600.1,500,600.1L500,600.1z"/>
<path d="M655.4,500c0,85.6-69.7,155.4-155.4,155.4c-85.8,0-155.4-69.801-155.4-155.4c0-20.6,4.101-40.3,11.5-58.3H271.2v232.6
	c0,30,24.5,54.3,54.5,54.3h348.6c30,0,54.5-24.3,54.5-54.3V441.7H643.9C651.2,459.7,655.4,479.4,655.4,500L655.4,500z"/>
<polygon points="718.4,377.7 718.4,281.3 705.8,281.3 621.9,281.6 622.3,377.9 "/>
<path display="none" d="M500,0C223.9,0,0,223.9,0,500c0,276.1,223.9,500,500,500c276.1,0,500-223.9,500-500
	C1000,223.9,776.1,0,500,0z"/>
<path display="none" d="M500,954.5C249,954.5,45.5,751,45.5,500S249,45.5,500,45.5S954.5,249,954.5,500S751,954.5,500,954.5z"/>
</svg>
