<svg xmlns="http://www.w3.org/2000/svg" viewBox="0 0 1000 1000">
  <path d="M741.014 651.086c-15.312 0-28.924-2.532-42.536-6.848-28.884-10.21-52.704-29.754-67.975-58.68-12.78-22.99-19.586-51.084-19.586-83.432v-4.254c0-6.827 0-12.783.87-18.738 2.53-31.496 11.91-58.74 26.352-80.01 22.118-31.496 56.977-50.233 102.045-50.233 58.638 0 100.302 33.2 118.146 84.285H940C915.35 346.34 840.486 287.62 740.142 287.62c-70.548 0-128.354 29.795-165.743 77.457-22.123-6.806-45.922-11.06-71.42-11.06-23.823 0-46.772 3.403-68.04 10.21-36.54-47.683-94.368-76.608-165.787-76.608C146.733 287.62 60 376.986 60 497.852v4.274C60 621.29 142.48 712.38 269.153 712.38c24.67 0 46.77-3.403 68.04-10.21 25.5-7.677 47.597-19.586 66.292-34.94 46.77-38.262 73.972-97.024 73.972-166.825v-4.233c0-27.244-4.253-52.786-12.74-75.776 11.89-3.403 24.65-5.104 38.262-5.104 14.44 0 28.03 1.702 40.79 5.976-8.506 23.82-12.74 49.363-12.74 76.606v4.254c0 68.078 27.183 126.84 73.122 164.27 18.718 15.356 39.965 27.224 64.614 34.902 22.078 6.806 45.897 11.08 71.42 11.08 100.3 0 173.42-57.89 198.072-143.005H856.67c-18.715 51.043-59.51 81.71-115.656 81.71zM398.4 501.256c0 35.75-7.657 66.417-22.117 91.108-16.143 27.225-39.963 45.938-69.718 53.617-11.06 3.403-22.95 5.105-35.71 5.105-74.823 0-130.077-58.722-130.077-148.96v-4.253c0-89.39 47.62-148.98 129.226-148.98 44.217 0 78.226 18.737 100.324 49.383 14.46 20.418 23.82 45.96 26.372 74.906.85 7.656 1.702 15.313 1.702 23.842v4.234z"/>
</svg>
