<svg id="binocle_mini_logo" xmlns="http://www.w3.org/2000/svg" viewBox="0 0 680.315 680.315">>
  <path d="M184.093 196.549c-82.96 0-141.659 60.658-141.659 142.442v3.132c0 80.609 55.958 142.05 141.659 142.05 85.7 0 141.658-61.44 141.658-142.05v-3.132c0-81.784-58.699-142.442-141.658-142.442zm86.875 144.792c0 24.109-5.332 44.928-14.983 61.354-10.649 18.125-26.634 30.783-46.83 36.343a90.968 90.968 0 0 1-24.278 3.265c-50.874 0-88.05-39.527-88.05-100.573v-3.131c0-60.259 32.482-100.567 87.266-100.567 29.888 0 52.958 12.758 67.811 33.638 9.77 13.732 15.929 30.992 18.101 50.522.578 5.205.963 10.518.963 16.019v3.13zm303.576 61.354c-10.649 18.125-26.636 30.783-46.83 36.344a91.015 91.015 0 0 1-24.278 3.262c-50.874 0-88.05-39.525-88.05-100.571v-3.132c0-60.258 32.481-100.566 87.265-100.566 29.889 0 52.958 12.758 67.812 33.637 4.983 7.007 9.017 14.943 12.07 23.62h55.753c-16.958-58.78-68.304-98.739-135.636-98.739-82.96 0-141.658 60.658-141.658 142.442v3.132c0 80.608 55.958 142.049 141.658 142.049 68.736 0 118.306-39.541 135.25-96.778h-56.163c-2.039 5.434-4.415 10.569-7.193 15.3z"/>
</svg>
