<svg xmlns="http://www.w3.org/2000/svg" viewBox="0 0 244.5 50" shape-rendering="geometricPrecision"><path d="M0 .7h9.2l8.5 35.7L27.1.7h7.5l9.7 35.9L53 .7h8.4L49.2 49.3h-9l-9.6-35.4-9.9 35.4h-8.6M64.6 25.3v-.5C64.6 10.6 74.8 0 89.2 0c14.5 0 24.5 10.3 24.5 24.5v.5c0 14.2-9.7 24.9-24.5 24.9-14.9.1-24.6-10.6-24.6-24.6m39.7-.1v-.5c0-10-5.6-17.4-15.1-17.4S74 14.3 74 24.8v.5c0 10.6 6.5 17.5 15.3 17.5 9.2-.1 15-7.1 15-17.6M122.4.7h16.3c10.7 0 18.2 4.4 18.2 14.3v.3c0 7.6-4.8 11.5-10.8 13.1l13.7 21H150l-12.7-19.7h-5.8v19.7h-9V.7zm16.3 22.5c6.1 0 9.2-2.6 9.2-7.8v-.3c0-5.6-3.5-7.5-9.2-7.5h-7.3v15.5h7.3zM166.9.7h9.1v22L194.6.6h9.7l-20.1 23.3 21.2 25.4h-10.7L176 26.6v22.7h-9.1M207.1 34.2h8.7c.6 4.9 2.6 9 10.8 9 5.4 0 9.2-3 9.2-7.5s-2.2-6.2-10.1-7.5c-11.6-1.6-17.1-5.1-17.1-14.2 0-8 6.8-13.9 16.9-13.9 10.5 0 16.7 4.8 17.7 14.1h-8.3c-.9-5.1-3.8-7.3-9.4-7.3-5.5 0-8.4 2.7-8.4 6.4 0 3.9 1.6 5.9 10.1 7.1 11.4 1.6 17.3 4.8 17.3 14.5 0 8.4-7.1 15-17.9 15-13.3.1-18.9-6.5-19.5-15.7"/></svg>
