<svg xmlns="http://www.w3.org/2000/svg" viewBox="0 0 735 150">
	<path class="st0" d="M.294 2.136H27.93L53.46 109.4 81.695 2.137h22.528l29.136 107.866L159.49 2.136h25.232L148.076 148.16h-27.034L92.208 41.8 62.472 148.16H36.64m157.696-72.11v-1.502c0-42.664 30.638-74.514 73.893-74.514 43.553 0 73.59 30.946 73.59 73.613v1.502c0 42.666-29.138 74.814-73.59 74.814-44.758.3-73.894-31.85-73.894-73.914m119.247-.3v-1.503c0-30.046-16.82-52.28-45.354-52.28-28.54 0-45.66 21.032-45.66 52.58v1.502c0 31.85 19.525 52.58 45.96 52.58 27.63-.3 45.053-21.332 45.053-52.88m54.37-73.614h48.96c32.14 0 54.667 13.22 54.667 42.966v.902c0 22.835-14.418 34.553-32.44 39.362l41.152 63.096h-29.438l-38.146-59.19h-17.423v59.19h-27.033V2.136h-.3zm48.96 67.605c18.322 0 27.635-7.81 27.635-23.435v-.902c0-16.825-10.515-22.535-27.636-22.535h-21.928V69.44h21.928v.3zm84.704-67.604h27.332v66.1l55.868-66.4h29.14L553.58 71.843l63.68 76.317h-32.14l-56.173-68.204v68.205h-27.333m120.75-45.37H648.5c1.803 14.724 7.81 27.043 32.44 27.043 16.22 0 27.634-9.014 27.634-22.535 0-13.52-6.608-18.63-30.337-22.534-34.845-4.808-51.364-15.323-51.364-42.666 0-24.037 20.424-41.764 50.764-41.764 31.54 0 50.162 14.422 53.166 42.364h-24.93c-2.705-15.323-11.417-21.933-28.236-21.933-16.52 0-25.23 8.113-25.23 19.23 0 11.717 4.805 17.727 30.337 21.332 34.24 4.807 51.963 14.423 51.963 43.568 0 25.238-21.325 45.068-53.767 45.068-39.948.302-56.77-19.528-58.572-47.172"/>
</svg>
